<svg data-v-423bf9ae="" xmlns="http://www.w3.org/2000/svg" viewBox="0 0 218.59327308691337 60" class="font"><!----><!----><!----><g data-v-423bf9ae="" id="297f9089-216e-4fc2-b6d0-1bf6292c5c0e" fill="white" transform="matrix(6.116207689453325,0,0,6.116207689453325,-2.5688054459374143,-14.984708415548418)"><path d="M0.43 12.01L0.43 12.01L2.75 2.65L2.75 2.65Q2.80 2.45 2.99 2.45L2.99 2.45L4.94 2.45L4.94 2.45Q5.14 2.45 5.18 2.65L5.18 2.65L7.51 12.01L7.51 12.01Q7.52 12.06 7.52 12.09L7.52 12.09L7.52 12.09Q7.52 12.25 7.31 12.25L7.31 12.25L5.95 12.25L5.95 12.25Q5.77 12.25 5.73 12.05L5.73 12.05L5.28 10.29L2.65 10.29L2.21 12.05L2.21 12.05Q2.17 12.25 1.99 12.25L1.99 12.25L0.62 12.25L0.62 12.25Q0.42 12.25 0.42 12.10L0.42 12.10L0.42 12.10Q0.42 12.06 0.43 12.01ZM3.96 4.86L3.08 8.67L4.85 8.67L3.96 4.86ZM8.63 12.02L8.63 12.02L8.63 2.67L8.63 2.67Q8.63 2.57 8.70 2.51L8.70 2.51L8.70 2.51Q8.76 2.45 8.86 2.45L8.86 2.45L12.22 2.45L12.22 2.45Q13.21 2.45 13.73 2.96L13.73 2.96L13.73 2.96Q14.24 3.47 14.24 4.46L14.24 4.46L14.24 7.21L14.24 7.21Q14.24 8.19 13.73 8.71L13.73 8.71L13.73 8.71Q13.21 9.22 12.22 9.23L12.22 9.23L10.46 9.24L10.46 12.04L10.46 12.04Q10.46 12.26 10.23 12.26L10.23 12.26L8.86 12.25L8.86 12.25Q8.76 12.25 8.70 12.19L8.70 12.19L8.70 12.19Q8.63 12.13 8.63 12.02ZM10.46 4.27L10.46 7.43L11.85 7.42L11.85 7.42Q12.41 7.42 12.41 6.86L12.41 6.86L12.41 4.82L12.41 4.82Q12.41 4.26 11.85 4.26L11.85 4.26L10.46 4.27ZM15.63 12.02L15.63 12.02L15.63 2.67L15.63 2.67Q15.63 2.57 15.70 2.51L15.70 2.51L15.70 2.51Q15.76 2.45 15.86 2.45L15.86 2.45L19.22 2.45L19.22 2.45Q20.21 2.45 20.73 2.96L20.73 2.96L20.73 2.96Q21.24 3.47 21.24 4.46L21.24 4.46L21.24 7.21L21.24 7.21Q21.24 8.19 20.73 8.71L20.73 8.71L20.73 8.71Q20.21 9.22 19.22 9.23L19.22 9.23L17.46 9.24L17.46 12.04L17.46 12.04Q17.46 12.26 17.23 12.26L17.23 12.26L15.86 12.25L15.86 12.25Q15.76 12.25 15.70 12.19L15.70 12.19L15.70 12.19Q15.63 12.13 15.63 12.02ZM17.46 4.27L17.46 7.43L18.85 7.42L18.85 7.42Q19.41 7.42 19.41 6.86L19.41 6.86L19.41 4.82L19.41 4.82Q19.41 4.26 18.85 4.26L18.85 4.26L17.46 4.27ZM22.63 10.23L22.63 10.23L22.63 9.32L22.63 9.32Q22.63 9.10 22.86 9.10L22.86 9.10L24.27 9.10L24.27 9.10Q24.50 9.10 24.50 9.32L24.50 9.32L24.50 9.91L24.50 9.91Q24.50 10.47 25.06 10.47L25.06 10.47L25.81 10.47L25.81 10.47Q26.37 10.47 26.37 9.91L26.37 9.91L26.37 8.50L23.02 7.40L23.02 7.40Q22.63 7.28 22.63 6.89L22.63 6.89L22.63 4.46L22.63 4.46Q22.63 3.48 23.15 2.96L23.15 2.96L23.15 2.96Q23.67 2.45 24.65 2.45L24.65 2.45L26.22 2.45L26.22 2.45Q27.21 2.45 27.73 2.96L27.73 2.96L27.73 2.96Q28.24 3.47 28.24 4.46L28.24 4.46L28.24 5.39L28.24 5.39Q28.24 5.61 28.01 5.61L28.01 5.61L26.60 5.61L26.60 5.61Q26.50 5.61 26.43 5.55L26.43 5.55L26.43 5.55Q26.37 5.49 26.37 5.39L26.37 5.39L26.37 4.80L26.37 4.80Q26.37 4.25 25.81 4.25L25.81 4.25L25.05 4.25L25.05 4.25Q24.78 4.25 24.63 4.39L24.63 4.39L24.63 4.39Q24.49 4.53 24.49 4.80L24.49 4.80L24.49 6.00L27.87 7.08L27.87 7.08Q28.24 7.21 28.24 7.60L28.24 7.60L28.24 10.23L28.24 10.23Q28.24 11.22 27.73 11.74L27.73 11.74L27.73 11.74Q27.21 12.25 26.22 12.25L26.22 12.25L24.65 12.25L24.65 12.25Q23.67 12.25 23.15 11.73L23.15 11.73L23.15 11.73Q22.63 11.22 22.63 10.23ZM31.66 8.58L29.11 2.78L29.11 2.78Q29.07 2.71 29.07 2.65L29.07 2.65L29.07 2.65Q29.07 2.59 29.11 2.54L29.11 2.54L29.11 2.54Q29.17 2.45 29.33 2.45L29.33 2.45L30.73 2.45L30.73 2.45Q30.96 2.45 31.05 2.67L31.05 2.67L32.62 6.28L34.19 2.67L34.19 2.67Q34.28 2.45 34.51 2.45L34.51 2.45L35.91 2.45L35.91 2.45Q36.07 2.45 36.13 2.54L36.13 2.54L36.13 2.54Q36.16 2.59 36.16 2.65L36.16 2.65L36.16 2.65Q36.16 2.71 36.13 2.78L36.13 2.78L33.57 8.58L33.57 11.97L33.57 11.97Q33.57 12.25 33.29 12.25L33.29 12.25L31.94 12.25L31.94 12.25Q31.66 12.25 31.66 11.97L31.66 11.97L31.66 8.58Z"></path></g><!----><!----></svg>